<svg xmlns="http://www.w3.org/2000/svg" xmlns:xlink="http://www.w3.org/1999/xlink" contentStyleType="text/css" data-diagram-type="SEQUENCE" height="2144px" preserveAspectRatio="none" style="width:1007px;height:2144px;background:#FFFFFF;" version="1.1" viewBox="0 0 1007 2144" width="1007px" zoomAndPan="magnify"><defs/><g><rect fill="none" height="212.7344" style="stroke:#000000;stroke-width:1.5;" width="980.4536" x="10" y="183.5625"/><rect fill="none" height="247.8672" style="stroke:#000000;stroke-width:1.5;" width="673.8047" x="10" y="540.8281"/><rect fill="none" height="233.0625" style="stroke:#000000;stroke-width:1.5;" width="980.4536" x="10" y="845.8281"/><rect fill="none" height="197.9297" style="stroke:#000000;stroke-width:1.5;" width="980.4536" x="10" y="1092.8906"/><rect fill="none" height="233.0625" style="stroke:#000000;stroke-width:1.5;" width="980.4536" x="10" y="1304.8203"/><rect fill="none" height="248.1953" style="stroke:#000000;stroke-width:1.5;" width="980.4536" x="10" y="1551.8828"/><rect fill="none" height="233.0625" style="stroke:#000000;stroke-width:1.5;" width="980.4536" x="10" y="1814.0781"/><g><title>User</title><rect fill="#000000" fill-opacity="0.00000" height="1982.8438" width="8" x="34.9551" y="81.2969"/><line style="stroke:#181818;stroke-width:0.5;stroke-dasharray:5,5;" x1="38" x2="38" y1="81.2969" y2="2064.1406"/></g><g><title>Frontend</title><rect fill="#000000" fill-opacity="0.00000" height="1982.8438" width="8" x="326.5024" y="81.2969"/><line style="stroke:#181818;stroke-width:0.5;stroke-dasharray:5,5;" x1="329.9478" x2="329.9478" y1="81.2969" y2="2064.1406"/></g><g><title>Backend</title><rect fill="#000000" fill-opacity="0.00000" height="1982.8438" width="8" x="632.624" y="81.2969"/><line style="stroke:#181818;stroke-width:0.5;stroke-dasharray:5,5;" x1="636.4434" x2="636.4434" y1="81.2969" y2="2064.1406"/></g><g><title>Database</title><rect fill="#000000" fill-opacity="0.00000" height="1982.8438" width="8" x="940.0532" y="81.2969"/><line style="stroke:#181818;stroke-width:0.5;stroke-dasharray:5,5;" x1="943.6528" x2="943.6528" y1="81.2969" y2="2064.1406"/></g><g class="participant participant-head" data-participant="user"><text fill="#000000" font-family="sans-serif" font-size="14" lengthAdjust="spacing" textLength="31.9102" x="20" y="77.9951">User</text><ellipse cx="38.9551" cy="13.5" fill="#E2E2F0" rx="8" ry="8" style="stroke:#181818;stroke-width:0.5;"/><path d="M38.9551,21.5 L38.9551,48.5 M25.9551,29.5 L51.9551,29.5 M38.9551,48.5 L25.9551,63.5 M38.9551,48.5 L51.9551,63.5" fill="none" style="stroke:#181818;stroke-width:0.5;"/></g><g class="participant participant-tail" data-participant="user"><text fill="#000000" font-family="sans-serif" font-size="14" lengthAdjust="spacing" textLength="31.9102" x="20" y="2076.1357">User</text><ellipse cx="38.9551" cy="2087.9375" fill="#E2E2F0" rx="8" ry="8" style="stroke:#181818;stroke-width:0.5;"/><path d="M38.9551,2095.9375 L38.9551,2122.9375 M25.9551,2103.9375 L51.9551,2103.9375 M38.9551,2122.9375 L25.9551,2137.9375 M38.9551,2122.9375 L51.9551,2137.9375" fill="none" style="stroke:#181818;stroke-width:0.5;"/></g><g class="participant participant-head" data-participant="fe"><rect fill="#E2E2F0" height="30.2969" rx="2.5" ry="2.5" style="stroke:#181818;stroke-width:0.5;" width="77.1094" x="291.9478" y="50"/><text fill="#000000" font-family="sans-serif" font-size="14" lengthAdjust="spacing" textLength="63.1094" x="298.9478" y="69.9951">Frontend</text></g><g class="participant participant-tail" data-participant="fe"><rect fill="#E2E2F0" height="30.2969" rx="2.5" ry="2.5" style="stroke:#181818;stroke-width:0.5;" width="77.1094" x="291.9478" y="2063.1406"/><text fill="#000000" font-family="sans-serif" font-size="14" lengthAdjust="spacing" textLength="63.1094" x="298.9478" y="2083.1357">Frontend</text></g><g class="participant participant-head" data-participant="be"><rect fill="#E2E2F0" height="30.2969" rx="2.5" ry="2.5" style="stroke:#181818;stroke-width:0.5;" width="74.3613" x="599.4434" y="50"/><text fill="#000000" font-family="sans-serif" font-size="14" lengthAdjust="spacing" textLength="60.3613" x="606.4434" y="69.9951">Backend</text></g><g class="participant participant-tail" data-participant="be"><rect fill="#E2E2F0" height="30.2969" rx="2.5" ry="2.5" style="stroke:#181818;stroke-width:0.5;" width="74.3613" x="599.4434" y="2063.1406"/><text fill="#000000" font-family="sans-serif" font-size="14" lengthAdjust="spacing" textLength="60.3613" x="606.4434" y="2083.1357">Backend</text></g><g class="participant participant-head" data-participant="db"><text fill="#000000" font-family="sans-serif" font-size="14" lengthAdjust="spacing" textLength="66.8008" x="907.6528" y="77.9951">Database</text><path d="M926.0532,29 C926.0532,19 944.0532,19 944.0532,19 C944.0532,19 962.0532,19 962.0532,29 L962.0532,55 C962.0532,65 944.0532,65 944.0532,65 C944.0532,65 926.0532,65 926.0532,55 L926.0532,29" fill="#E2E2F0" style="stroke:#181818;stroke-width:0.5;"/><path d="M926.0532,29 C926.0532,39 944.0532,39 944.0532,39 C944.0532,39 962.0532,39 962.0532,29" fill="none" style="stroke:#181818;stroke-width:0.5;"/></g><g class="participant participant-tail" data-participant="db"><text fill="#000000" font-family="sans-serif" font-size="14" lengthAdjust="spacing" textLength="66.8008" x="907.6528" y="2076.1357">Database</text><path d="M926.0532,2089.4375 C926.0532,2079.4375 944.0532,2079.4375 944.0532,2079.4375 C944.0532,2079.4375 962.0532,2079.4375 962.0532,2089.4375 L962.0532,2115.4375 C962.0532,2125.4375 944.0532,2125.4375 944.0532,2125.4375 C944.0532,2125.4375 926.0532,2125.4375 926.0532,2115.4375 L926.0532,2089.4375" fill="#E2E2F0" style="stroke:#181818;stroke-width:0.5;"/><path d="M926.0532,2089.4375 C926.0532,2099.4375 944.0532,2099.4375 944.0532,2099.4375 C944.0532,2099.4375 962.0532,2099.4375 962.0532,2089.4375" fill="none" style="stroke:#181818;stroke-width:0.5;"/></g><rect fill="#EEEEEE" height="3" style="stroke:#EEEEEE;stroke-width:1;" width="1000.4536" x="0" y="111.8633"/><line style="stroke:#000000;stroke-width:1;" x1="0" x2="1000.4536" y1="111.8633" y2="111.8633"/><line style="stroke:#000000;stroke-width:1;" x1="0" x2="1000.4536" y1="114.8633" y2="114.8633"/><rect fill="#EEEEEE" height="23.1328" style="stroke:#000000;stroke-width:2;" width="97.7446" x="451.3545" y="101.2969"/><text fill="#000000" font-family="sans-serif" font-size="13" font-weight="bold" lengthAdjust="spacing" textLength="79.2188" x="457.3545" y="117.3638">Auto Login</text><g class="message" data-participant-1="fe" data-participant-2="fe"><line style="stroke:#181818;stroke-width:1;stroke-dasharray:2,2;" x1="330.5024" x2="372.5024" y1="155.5625" y2="155.5625"/><line style="stroke:#181818;stroke-width:1;stroke-dasharray:2,2;" x1="372.5024" x2="372.5024" y1="155.5625" y2="168.5625"/><line style="stroke:#181818;stroke-width:1;stroke-dasharray:2,2;" x1="331.5024" x2="372.5024" y1="168.5625" y2="168.5625"/><polygon fill="#181818" points="341.5024,164.5625,331.5024,168.5625,341.5024,172.5625,337.5024,168.5625" style="stroke:#181818;stroke-width:1;"/><text fill="#000000" font-family="sans-serif" font-size="13" lengthAdjust="spacing" textLength="256.6611" x="337.5024" y="150.4966">Check if user info exists in localStorage</text></g><path d="M10,183.5625 L74.4429,183.5625 L74.4429,190.6953 L64.4429,200.6953 L10,200.6953 L10,183.5625" fill="#EEEEEE" style="stroke:#000000;stroke-width:1.5;"/><rect fill="none" height="212.7344" style="stroke:#000000;stroke-width:1.5;" width="980.4536" x="10" y="183.5625"/><text fill="#000000" font-family="sans-serif" font-size="13" font-weight="bold" lengthAdjust="spacing" textLength="19.4429" x="25" y="196.6294">alt</text><text fill="#000000" font-family="sans-serif" font-size="11" font-weight="bold" lengthAdjust="spacing" textLength="106.7021" x="89.4429" y="195.7729">[User info exists]</text><g class="message" data-participant-1="fe" data-participant-2="be"><polygon fill="#181818" points="624.624,217.8281,634.624,221.8281,624.624,225.8281,628.624,221.8281" style="stroke:#181818;stroke-width:1;"/><line style="stroke:#181818;stroke-width:1;" x1="330.5024" x2="630.624" y1="221.8281" y2="221.8281"/><text fill="#000000" font-family="sans-serif" font-size="13" lengthAdjust="spacing" textLength="106.2026" x="337.5024" y="216.7622">GET request (id)</text></g><g class="message" data-participant-1="be" data-participant-2="db"><polygon fill="#181818" points="932.0532,246.9609,942.0532,250.9609,932.0532,254.9609,936.0532,250.9609" style="stroke:#181818;stroke-width:1;"/><line style="stroke:#181818;stroke-width:1;" x1="636.624" x2="938.0532" y1="250.9609" y2="250.9609"/><text fill="#000000" font-family="sans-serif" font-size="13" lengthAdjust="spacing" textLength="283.4292" x="643.624" y="245.895">Retrieve all records correponding to user id</text></g><g class="message" data-participant-1="be" data-participant-2="fe"><polygon fill="#181818" points="341.5024,276.0938,331.5024,280.0938,341.5024,284.0938,337.5024,280.0938" style="stroke:#181818;stroke-width:1;"/><line style="stroke:#181818;stroke-width:1;" x1="335.5024" x2="635.624" y1="280.0938" y2="280.0938"/><text fill="#000000" font-family="sans-serif" font-size="13" lengthAdjust="spacing" textLength="222.6631" x="347.5024" y="275.0278">Return work and category records</text></g><path d="M335,293.0938 L335,318.0938 L547,318.0938 L547,303.0938 L537,293.0938 L335,293.0938" fill="#FEFFDD" style="stroke:#181818;stroke-width:0.5;"/><path d="M537,293.0938 L537,303.0938 L547,303.0938 L537,293.0938" fill="#FEFFDD" style="stroke:#181818;stroke-width:0.5;"/><text fill="#000000" font-family="sans-serif" font-size="13" lengthAdjust="spacing" textLength="191.5532" x="341" y="310.1606">mount to respective contexts</text><g class="message" data-participant-1="fe" data-participant-2="user"><polygon fill="#181818" points="49.9551,340.3594,39.9551,344.3594,49.9551,348.3594,45.9551,344.3594" style="stroke:#181818;stroke-width:1;"/><line style="stroke:#181818;stroke-width:1;stroke-dasharray:2,2;" x1="43.9551" x2="329.5024" y1="344.3594" y2="344.3594"/><text fill="#000000" font-family="sans-serif" font-size="13" lengthAdjust="spacing" textLength="199.5767" x="55.9551" y="339.2935">Display all record informations</text></g><line style="stroke:#000000;stroke-width:1;stroke-dasharray:2,2;" x1="10" x2="990.4536" y1="353.3594" y2="353.3594"/><text fill="#000000" font-family="sans-serif" font-size="11" font-weight="bold" lengthAdjust="spacing" textLength="85.6851" x="15" y="363.5698">[No user info]</text><g class="message" data-participant-1="fe" data-participant-2="user"><polygon fill="#181818" points="49.9551,384.2969,39.9551,388.2969,49.9551,392.2969,45.9551,388.2969" style="stroke:#181818;stroke-width:1;"/><line style="stroke:#181818;stroke-width:1;stroke-dasharray:2,2;" x1="43.9551" x2="329.5024" y1="388.2969" y2="388.2969"/><text fill="#000000" font-family="sans-serif" font-size="13" lengthAdjust="spacing" textLength="205.4482" x="55.9551" y="383.231">Display login required message</text></g><rect fill="#EEEEEE" height="3" style="stroke:#EEEEEE;stroke-width:1;" width="1000.4536" x="0" y="423.8633"/><line style="stroke:#000000;stroke-width:1;" x1="0" x2="1000.4536" y1="423.8633" y2="423.8633"/><line style="stroke:#000000;stroke-width:1;" x1="0" x2="1000.4536" y1="426.8633" y2="426.8633"/><rect fill="#EEEEEE" height="23.1328" style="stroke:#000000;stroke-width:2;" width="107.3931" x="446.5303" y="413.2969"/><text fill="#000000" font-family="sans-serif" font-size="13" font-weight="bold" lengthAdjust="spacing" textLength="88.8672" x="452.5303" y="429.3638">Login Phase</text><g class="message" data-participant-1="user" data-participant-2="fe"><polygon fill="#181818" points="318.5024,463.5625,328.5024,467.5625,318.5024,471.5625,322.5024,467.5625" style="stroke:#181818;stroke-width:1;"/><line style="stroke:#181818;stroke-width:1;" x1="38.9551" x2="324.5024" y1="467.5625" y2="467.5625"/><text fill="#000000" font-family="sans-serif" font-size="13" lengthAdjust="spacing" textLength="267.5474" x="45.9551" y="462.4966">Enters credentials (username, password)</text></g><g class="message" data-participant-1="fe" data-participant-2="be"><polygon fill="#181818" points="624.624,492.6953,634.624,496.6953,624.624,500.6953,628.624,496.6953" style="stroke:#181818;stroke-width:1;"/><line style="stroke:#181818;stroke-width:1;" x1="330.5024" x2="630.624" y1="496.6953" y2="496.6953"/><text fill="#000000" font-family="sans-serif" font-size="13" lengthAdjust="spacing" textLength="282.1216" x="337.5024" y="491.6294">POST / login request (username, password)</text></g><g class="message" data-participant-1="be" data-participant-2="db"><polygon fill="#181818" points="932.0532,521.8281,942.0532,525.8281,932.0532,529.8281,936.0532,525.8281" style="stroke:#181818;stroke-width:1;"/><line style="stroke:#181818;stroke-width:1;" x1="636.624" x2="938.0532" y1="525.8281" y2="525.8281"/><text fill="#000000" font-family="sans-serif" font-size="13" lengthAdjust="spacing" textLength="279.2778" x="643.624" y="520.7622">Validate credentials (username, password)</text></g><path d="M10,540.8281 L74.4429,540.8281 L74.4429,547.9609 L64.4429,557.9609 L10,557.9609 L10,540.8281" fill="#EEEEEE" style="stroke:#000000;stroke-width:1.5;"/><rect fill="none" height="247.8672" style="stroke:#000000;stroke-width:1.5;" width="673.8047" x="10" y="540.8281"/><text fill="#000000" font-family="sans-serif" font-size="13" font-weight="bold" lengthAdjust="spacing" textLength="19.4429" x="25" y="553.895">alt</text><text fill="#000000" font-family="sans-serif" font-size="11" font-weight="bold" lengthAdjust="spacing" textLength="110.4243" x="89.4429" y="553.0386">[Successful login]</text><g class="message" data-participant-1="be" data-participant-2="fe"><polygon fill="#181818" points="341.5024,575.0938,331.5024,579.0938,341.5024,583.0938,337.5024,579.0938" style="stroke:#181818;stroke-width:1;"/><line style="stroke:#181818;stroke-width:1;" x1="335.5024" x2="635.624" y1="579.0938" y2="579.0938"/><text fill="#000000" font-family="sans-serif" font-size="13" lengthAdjust="spacing" textLength="204.5786" x="347.5024" y="574.0278">Return user info (id, username)</text></g><path d="M335,592.0938 L335,617.0938 L555,617.0938 L555,602.0938 L545,592.0938 L335,592.0938" fill="#FEFFDD" style="stroke:#181818;stroke-width:0.5;"/><path d="M545,592.0938 L545,602.0938 L555,602.0938 L545,592.0938" fill="#FEFFDD" style="stroke:#181818;stroke-width:0.5;"/><text fill="#000000" font-family="sans-serif" font-size="13" lengthAdjust="spacing" textLength="199.291" x="341" y="609.1606">store user info to local storage</text><g class="message" data-participant-1="be" data-participant-2="fe"><polygon fill="#181818" points="341.5024,639.3594,331.5024,643.3594,341.5024,647.3594,337.5024,643.3594" style="stroke:#181818;stroke-width:1;"/><line style="stroke:#181818;stroke-width:1;" x1="335.5024" x2="635.624" y1="643.3594" y2="643.3594"/><text fill="#000000" font-family="sans-serif" font-size="13" lengthAdjust="spacing" textLength="222.6631" x="347.5024" y="638.2935">Return work and category records</text></g><path d="M335,656.3594 L335,681.3594 L547,681.3594 L547,666.3594 L537,656.3594 L335,656.3594" fill="#FEFFDD" style="stroke:#181818;stroke-width:0.5;"/><path d="M537,656.3594 L537,666.3594 L547,666.3594 L537,656.3594" fill="#FEFFDD" style="stroke:#181818;stroke-width:0.5;"/><text fill="#000000" font-family="sans-serif" font-size="13" lengthAdjust="spacing" textLength="191.5532" x="341" y="673.4263">mount to respective contexts</text><g class="message" data-participant-1="fe" data-participant-2="user"><polygon fill="#181818" points="49.9551,703.625,39.9551,707.625,49.9551,711.625,45.9551,707.625" style="stroke:#181818;stroke-width:1;"/><line style="stroke:#181818;stroke-width:1;" x1="43.9551" x2="329.5024" y1="707.625" y2="707.625"/><text fill="#000000" font-family="sans-serif" font-size="13" lengthAdjust="spacing" textLength="199.5767" x="55.9551" y="702.5591">Display all record informations</text></g><line style="stroke:#000000;stroke-width:1;stroke-dasharray:2,2;" x1="10" x2="683.8047" y1="716.625" y2="716.625"/><text fill="#000000" font-family="sans-serif" font-size="11" font-weight="bold" lengthAdjust="spacing" textLength="82.5" x="15" y="726.8354">[Failed login]</text><g class="message" data-participant-1="be" data-participant-2="fe"><polygon fill="#181818" points="341.5024,747.5625,331.5024,751.5625,341.5024,755.5625,337.5024,751.5625" style="stroke:#181818;stroke-width:1;"/><line style="stroke:#181818;stroke-width:1;" x1="335.5024" x2="635.624" y1="751.5625" y2="751.5625"/><text fill="#000000" font-family="sans-serif" font-size="13" lengthAdjust="spacing" textLength="160.3989" x="347.5024" y="746.4966">Return error: failed login</text></g><g class="message" data-participant-1="fe" data-participant-2="user"><polygon fill="#181818" points="49.9551,776.6953,39.9551,780.6953,49.9551,784.6953,45.9551,780.6953" style="stroke:#181818;stroke-width:1;"/><line style="stroke:#181818;stroke-width:1;" x1="43.9551" x2="329.5024" y1="780.6953" y2="780.6953"/><text fill="#000000" font-family="sans-serif" font-size="13" lengthAdjust="spacing" textLength="164.3662" x="55.9551" y="775.6294">Display error: failed login</text></g><rect fill="#EEEEEE" height="3" style="stroke:#EEEEEE;stroke-width:1;" width="1000.4536" x="0" y="816.2617"/><line style="stroke:#000000;stroke-width:1;" x1="0" x2="1000.4536" y1="816.2617" y2="816.2617"/><line style="stroke:#000000;stroke-width:1;" x1="0" x2="1000.4536" y1="819.2617" y2="819.2617"/><rect fill="#EEEEEE" height="23.1328" style="stroke:#000000;stroke-width:2;" width="137.5254" x="431.4641" y="805.6953"/><text fill="#000000" font-family="sans-serif" font-size="13" font-weight="bold" lengthAdjust="spacing" textLength="118.9995" x="437.4641" y="821.7622">User Operations</text><path d="M10,845.8281 L74.4429,845.8281 L74.4429,852.9609 L64.4429,862.9609 L10,862.9609 L10,845.8281" fill="#EEEEEE" style="stroke:#000000;stroke-width:1.5;"/><rect fill="none" height="233.0625" style="stroke:#000000;stroke-width:1.5;" width="980.4536" x="10" y="845.8281"/><text fill="#000000" font-family="sans-serif" font-size="13" font-weight="bold" lengthAdjust="spacing" textLength="19.4429" x="25" y="858.895">alt</text><text fill="#000000" font-family="sans-serif" font-size="11" font-weight="bold" lengthAdjust="spacing" textLength="141.8828" x="89.4429" y="858.0386">[Create New Category]</text><g class="message" data-participant-1="user" data-participant-2="fe"><polygon fill="#181818" points="318.5024,880.0938,328.5024,884.0938,318.5024,888.0938,322.5024,884.0938" style="stroke:#181818;stroke-width:1;"/><line style="stroke:#181818;stroke-width:1;" x1="38.9551" x2="324.5024" y1="884.0938" y2="884.0938"/><text fill="#000000" font-family="sans-serif" font-size="13" lengthAdjust="spacing" textLength="105.0664" x="45.9551" y="879.0278">Create category</text></g><path d="M335,897.0938 L335,922.0938 L487,922.0938 L487,907.0938 L477,897.0938 L335,897.0938" fill="#FEFFDD" style="stroke:#181818;stroke-width:0.5;"/><path d="M477,897.0938 L477,907.0938 L487,907.0938 L477,897.0938" fill="#FEFFDD" style="stroke:#181818;stroke-width:0.5;"/><text fill="#000000" font-family="sans-serif" font-size="13" lengthAdjust="spacing" textLength="131.1489" x="341" y="914.1606">check for duplicates</text><g class="message" data-participant-1="fe" data-participant-2="be"><polygon fill="#181818" points="624.624,944.3594,634.624,948.3594,624.624,952.3594,628.624,948.3594" style="stroke:#181818;stroke-width:1;"/><line style="stroke:#181818;stroke-width:1;" x1="330.5024" x2="630.624" y1="948.3594" y2="948.3594"/><text fill="#000000" font-family="sans-serif" font-size="13" lengthAdjust="spacing" textLength="201.6968" x="337.5024" y="943.2935">POST request (category entity)</text></g><g class="message" data-participant-1="be" data-participant-2="db"><polygon fill="#181818" points="932.0532,973.4922,942.0532,977.4922,932.0532,981.4922,936.0532,977.4922" style="stroke:#181818;stroke-width:1;"/><line style="stroke:#181818;stroke-width:1;" x1="636.624" x2="938.0532" y1="977.4922" y2="977.4922"/><text fill="#000000" font-family="sans-serif" font-size="13" lengthAdjust="spacing" textLength="166.3657" x="643.624" y="972.4263">Save new category entity</text></g><g class="message" data-participant-1="be" data-participant-2="fe"><polygon fill="#181818" points="341.5024,1002.625,331.5024,1006.625,341.5024,1010.625,337.5024,1006.625" style="stroke:#181818;stroke-width:1;"/><line style="stroke:#181818;stroke-width:1;" x1="335.5024" x2="635.624" y1="1006.625" y2="1006.625"/><text fill="#000000" font-family="sans-serif" font-size="13" lengthAdjust="spacing" textLength="147.4053" x="347.5024" y="1001.5591">Return category entity</text></g><path d="M335,1019.625 L335,1044.625 L522,1044.625 L522,1029.625 L512,1019.625 L335,1019.625" fill="#FEFFDD" style="stroke:#181818;stroke-width:0.5;"/><path d="M512,1019.625 L512,1029.625 L522,1029.625 L512,1019.625" fill="#FEFFDD" style="stroke:#181818;stroke-width:0.5;"/><text fill="#000000" font-family="sans-serif" font-size="13" lengthAdjust="spacing" textLength="166.7593" x="341" y="1036.6919">reload categories context</text><g class="message" data-participant-1="fe" data-participant-2="user"><polygon fill="#181818" points="49.9551,1066.8906,39.9551,1070.8906,49.9551,1074.8906,45.9551,1070.8906" style="stroke:#181818;stroke-width:1;"/><line style="stroke:#181818;stroke-width:1;" x1="43.9551" x2="329.5024" y1="1070.8906" y2="1070.8906"/><text fill="#000000" font-family="sans-serif" font-size="13" lengthAdjust="spacing" textLength="138.0488" x="55.9551" y="1065.8247">Reflect new category</text></g><path d="M10,1092.8906 L74.4429,1092.8906 L74.4429,1100.0234 L64.4429,1110.0234 L10,1110.0234 L10,1092.8906" fill="#EEEEEE" style="stroke:#000000;stroke-width:1.5;"/><rect fill="none" height="197.9297" style="stroke:#000000;stroke-width:1.5;" width="980.4536" x="10" y="1092.8906"/><text fill="#000000" font-family="sans-serif" font-size="13" font-weight="bold" lengthAdjust="spacing" textLength="19.4429" x="25" y="1105.9575">alt</text><text fill="#000000" font-family="sans-serif" font-size="11" font-weight="bold" lengthAdjust="spacing" textLength="112.1108" x="89.4429" y="1105.1011">[Add New Record]</text><g class="message" data-participant-1="user" data-participant-2="fe"><polygon fill="#181818" points="318.5024,1127.1563,328.5024,1131.1563,318.5024,1135.1563,322.5024,1131.1563" style="stroke:#181818;stroke-width:1;"/><line style="stroke:#181818;stroke-width:1;" x1="38.9551" x2="324.5024" y1="1131.1563" y2="1131.1563"/><text fill="#000000" font-family="sans-serif" font-size="13" lengthAdjust="spacing" textLength="109.3447" x="45.9551" y="1126.0903">Adds new record</text></g><g class="message" data-participant-1="fe" data-participant-2="be"><polygon fill="#181818" points="624.624,1156.2891,634.624,1160.2891,624.624,1164.2891,628.624,1160.2891" style="stroke:#181818;stroke-width:1;"/><line style="stroke:#181818;stroke-width:1;" x1="330.5024" x2="630.624" y1="1160.2891" y2="1160.2891"/><text fill="#000000" font-family="sans-serif" font-size="13" lengthAdjust="spacing" textLength="175.7031" x="337.5024" y="1155.2231">POST request (work entity)</text></g><g class="message" data-participant-1="be" data-participant-2="db"><polygon fill="#181818" points="932.0532,1185.4219,942.0532,1189.4219,932.0532,1193.4219,936.0532,1189.4219" style="stroke:#181818;stroke-width:1;"/><line style="stroke:#181818;stroke-width:1;" x1="636.624" x2="938.0532" y1="1189.4219" y2="1189.4219"/><text fill="#000000" font-family="sans-serif" font-size="13" lengthAdjust="spacing" textLength="165.6865" x="643.624" y="1184.356">Save record (work entity)</text></g><g class="message" data-participant-1="be" data-participant-2="fe"><polygon fill="#181818" points="341.5024,1214.5547,331.5024,1218.5547,341.5024,1222.5547,337.5024,1218.5547" style="stroke:#181818;stroke-width:1;"/><line style="stroke:#181818;stroke-width:1;" x1="335.5024" x2="635.624" y1="1218.5547" y2="1218.5547"/><text fill="#000000" font-family="sans-serif" font-size="13" lengthAdjust="spacing" textLength="173.3989" x="347.5024" y="1213.4888">Add work entity to context</text></g><path d="M335,1231.5547 L335,1256.5547 L486,1256.5547 L486,1241.5547 L476,1231.5547 L335,1231.5547" fill="#FEFFDD" style="stroke:#181818;stroke-width:0.5;"/><path d="M476,1231.5547 L476,1241.5547 L486,1241.5547 L476,1231.5547" fill="#FEFFDD" style="stroke:#181818;stroke-width:0.5;"/><text fill="#000000" font-family="sans-serif" font-size="13" lengthAdjust="spacing" textLength="130.0762" x="341" y="1248.6216">reload work context</text><g class="message" data-participant-1="fe" data-participant-2="user"><polygon fill="#181818" points="49.9551,1278.8203,39.9551,1282.8203,49.9551,1286.8203,45.9551,1282.8203" style="stroke:#181818;stroke-width:1;"/><line style="stroke:#181818;stroke-width:1;" x1="43.9551" x2="329.5024" y1="1282.8203" y2="1282.8203"/><text fill="#000000" font-family="sans-serif" font-size="13" lengthAdjust="spacing" textLength="178.7944" x="55.9551" y="1277.7544">Reflect newly added record</text></g><path d="M10,1304.8203 L74.4429,1304.8203 L74.4429,1311.9531 L64.4429,1321.9531 L10,1321.9531 L10,1304.8203" fill="#EEEEEE" style="stroke:#000000;stroke-width:1.5;"/><rect fill="none" height="233.0625" style="stroke:#000000;stroke-width:1.5;" width="980.4536" x="10" y="1304.8203"/><text fill="#000000" font-family="sans-serif" font-size="13" font-weight="bold" lengthAdjust="spacing" textLength="19.4429" x="25" y="1317.8872">alt</text><text fill="#000000" font-family="sans-serif" font-size="11" font-weight="bold" lengthAdjust="spacing" textLength="81.6084" x="89.4429" y="1317.0308">[Edit Record]</text><g class="message" data-participant-1="user" data-participant-2="fe"><polygon fill="#181818" points="318.5024,1339.0859,328.5024,1343.0859,318.5024,1347.0859,322.5024,1343.0859" style="stroke:#181818;stroke-width:1;"/><line style="stroke:#181818;stroke-width:1;" x1="38.9551" x2="324.5024" y1="1343.0859" y2="1343.0859"/><text fill="#000000" font-family="sans-serif" font-size="13" lengthAdjust="spacing" textLength="71.3477" x="45.9551" y="1338.02">Edit record</text></g><g class="message" data-participant-1="fe" data-participant-2="be"><polygon fill="#181818" points="624.624,1368.2188,634.624,1372.2188,624.624,1376.2188,628.624,1372.2188" style="stroke:#181818;stroke-width:1;"/><line style="stroke:#181818;stroke-width:1;" x1="330.5024" x2="630.624" y1="1372.2188" y2="1372.2188"/><text fill="#000000" font-family="sans-serif" font-size="13" lengthAdjust="spacing" textLength="166.7339" x="337.5024" y="1367.1528">PUT request (work entity)</text></g><path d="M335,1385.2188 L335,1410.2188 L595,1410.2188 L595,1395.2188 L585,1385.2188 L335,1385.2188" fill="#FEFFDD" style="stroke:#181818;stroke-width:0.5;"/><path d="M585,1385.2188 L585,1395.2188 L595,1395.2188 L585,1385.2188" fill="#FEFFDD" style="stroke:#181818;stroke-width:0.5;"/><text fill="#000000" font-family="sans-serif" font-size="13" lengthAdjust="spacing" textLength="239.9731" x="341" y="1402.2856">include workId, and update edit date</text><g class="message" data-participant-1="be" data-participant-2="db"><polygon fill="#181818" points="932.0532,1432.4844,942.0532,1436.4844,932.0532,1440.4844,936.0532,1436.4844" style="stroke:#181818;stroke-width:1;"/><line style="stroke:#181818;stroke-width:1;" x1="636.624" x2="938.0532" y1="1436.4844" y2="1436.4844"/><text fill="#000000" font-family="sans-serif" font-size="13" lengthAdjust="spacing" textLength="154.7114" x="643.624" y="1431.4185">Save edited work entity</text></g><g class="message" data-participant-1="be" data-participant-2="fe"><polygon fill="#181818" points="341.5024,1461.6172,331.5024,1465.6172,341.5024,1469.6172,337.5024,1465.6172" style="stroke:#181818;stroke-width:1;"/><line style="stroke:#181818;stroke-width:1;" x1="335.5024" x2="635.624" y1="1465.6172" y2="1465.6172"/><text fill="#000000" font-family="sans-serif" font-size="13" lengthAdjust="spacing" textLength="166.7529" x="347.5024" y="1460.5513">Return edited work entity</text></g><path d="M335,1478.6172 L335,1503.6172 L488,1503.6172 L488,1488.6172 L478,1478.6172 L335,1478.6172" fill="#FEFFDD" style="stroke:#181818;stroke-width:0.5;"/><path d="M478,1478.6172 L478,1488.6172 L488,1488.6172 L478,1478.6172" fill="#FEFFDD" style="stroke:#181818;stroke-width:0.5;"/><text fill="#000000" font-family="sans-serif" font-size="13" lengthAdjust="spacing" textLength="132.2979" x="341" y="1495.6841">reload Work context</text><g class="message" data-participant-1="fe" data-participant-2="user"><polygon fill="#181818" points="49.9551,1525.8828,39.9551,1529.8828,49.9551,1533.8828,45.9551,1529.8828" style="stroke:#181818;stroke-width:1;"/><line style="stroke:#181818;stroke-width:1;" x1="43.9551" x2="329.5024" y1="1529.8828" y2="1529.8828"/><text fill="#000000" font-family="sans-serif" font-size="13" lengthAdjust="spacing" textLength="179.2832" x="55.9551" y="1524.8169">Reflect newly edited record</text></g><path d="M10,1551.8828 L74.4429,1551.8828 L74.4429,1559.0156 L64.4429,1569.0156 L10,1569.0156 L10,1551.8828" fill="#EEEEEE" style="stroke:#000000;stroke-width:1.5;"/><rect fill="none" height="248.1953" style="stroke:#000000;stroke-width:1.5;" width="980.4536" x="10" y="1551.8828"/><text fill="#000000" font-family="sans-serif" font-size="13" font-weight="bold" lengthAdjust="spacing" textLength="19.4429" x="25" y="1564.9497">alt</text><text fill="#000000" font-family="sans-serif" font-size="11" font-weight="bold" lengthAdjust="spacing" textLength="97.7324" x="89.4429" y="1564.0933">[Delete Record]</text><g class="message" data-participant-1="user" data-participant-2="fe"><polygon fill="#181818" points="318.5024,1586.1484,328.5024,1590.1484,318.5024,1594.1484,322.5024,1590.1484" style="stroke:#181818;stroke-width:1;"/><line style="stroke:#181818;stroke-width:1;" x1="38.9551" x2="324.5024" y1="1590.1484" y2="1590.1484"/><text fill="#000000" font-family="sans-serif" font-size="13" lengthAdjust="spacing" textLength="88.8862" x="45.9551" y="1585.0825">Delete record</text></g><g class="message" data-participant-1="fe" data-participant-2="be"><polygon fill="#181818" points="624.624,1615.2813,634.624,1619.2813,624.624,1623.2813,628.624,1619.2813" style="stroke:#181818;stroke-width:1;"/><line style="stroke:#181818;stroke-width:1;" x1="330.5024" x2="630.624" y1="1619.2813" y2="1619.2813"/><text fill="#000000" font-family="sans-serif" font-size="13" lengthAdjust="spacing" textLength="191.2739" x="337.5024" y="1614.2153">DELETE request (work entity)</text></g><path d="M335,1632.2813 L335,1672.2813 L537,1672.2813 L537,1642.2813 L527,1632.2813 L335,1632.2813" fill="#FEFFDD" style="stroke:#181818;stroke-width:0.5;"/><path d="M527,1632.2813 L527,1642.2813 L537,1642.2813 L527,1632.2813" fill="#FEFFDD" style="stroke:#181818;stroke-width:0.5;"/><text fill="#000000" font-family="sans-serif" font-size="13" lengthAdjust="spacing" textLength="177.436" x="341" y="1649.3481">include workId, and update</text><text fill="#000000" font-family="sans-serif" font-size="13" lengthAdjust="spacing" textLength="117.457" x="341" y="1664.481">isDeleted boolean</text><g class="message" data-participant-1="be" data-participant-2="db"><polygon fill="#181818" points="932.0532,1694.6797,942.0532,1698.6797,932.0532,1702.6797,936.0532,1698.6797" style="stroke:#181818;stroke-width:1;"/><line style="stroke:#181818;stroke-width:1;" x1="636.624" x2="938.0532" y1="1698.6797" y2="1698.6797"/><text fill="#000000" font-family="sans-serif" font-size="13" lengthAdjust="spacing" textLength="120.1738" x="643.624" y="1693.6138">Delete work entity</text></g><g class="message" data-participant-1="be" data-participant-2="fe"><polygon fill="#181818" points="341.5024,1723.8125,331.5024,1727.8125,341.5024,1731.8125,337.5024,1727.8125" style="stroke:#181818;stroke-width:1;"/><line style="stroke:#181818;stroke-width:1;" x1="335.5024" x2="635.624" y1="1727.8125" y2="1727.8125"/><text fill="#000000" font-family="sans-serif" font-size="13" lengthAdjust="spacing" textLength="163.4014" x="347.5024" y="1722.7466">Return deletion message</text></g><path d="M335,1740.8125 L335,1765.8125 L577,1765.8125 L577,1750.8125 L567,1740.8125 L335,1740.8125" fill="#FEFFDD" style="stroke:#181818;stroke-width:0.5;"/><path d="M567,1740.8125 L567,1750.8125 L577,1750.8125 L567,1740.8125" fill="#FEFFDD" style="stroke:#181818;stroke-width:0.5;"/><text fill="#000000" font-family="sans-serif" font-size="13" lengthAdjust="spacing" textLength="221.6665" x="341" y="1757.8794">remove record from Work context</text><g class="message" data-participant-1="fe" data-participant-2="user"><polygon fill="#181818" points="49.9551,1788.0781,39.9551,1792.0781,49.9551,1796.0781,45.9551,1792.0781" style="stroke:#181818;stroke-width:1;"/><line style="stroke:#181818;stroke-width:1;" x1="43.9551" x2="329.5024" y1="1792.0781" y2="1792.0781"/><text fill="#000000" font-family="sans-serif" font-size="13" lengthAdjust="spacing" textLength="167.3687" x="55.9551" y="1787.0122">Display deletion message</text></g><path d="M10,1814.0781 L74.4429,1814.0781 L74.4429,1821.2109 L64.4429,1831.2109 L10,1831.2109 L10,1814.0781" fill="#EEEEEE" style="stroke:#000000;stroke-width:1.5;"/><rect fill="none" height="233.0625" style="stroke:#000000;stroke-width:1.5;" width="980.4536" x="10" y="1814.0781"/><text fill="#000000" font-family="sans-serif" font-size="13" font-weight="bold" lengthAdjust="spacing" textLength="19.4429" x="25" y="1827.145">alt</text><text fill="#000000" font-family="sans-serif" font-size="11" font-weight="bold" lengthAdjust="spacing" textLength="110.666" x="89.4429" y="1826.2886">[Delete Category]</text><g class="message" data-participant-1="user" data-participant-2="fe"><polygon fill="#181818" points="318.5024,1848.3438,328.5024,1852.3438,318.5024,1856.3438,322.5024,1852.3438" style="stroke:#181818;stroke-width:1;"/><line style="stroke:#181818;stroke-width:1;" x1="38.9551" x2="324.5024" y1="1852.3438" y2="1852.3438"/><text fill="#000000" font-family="sans-serif" font-size="13" lengthAdjust="spacing" textLength="104.2983" x="45.9551" y="1847.2778">Delete category</text></g><g class="message" data-participant-1="fe" data-participant-2="be"><polygon fill="#181818" points="624.624,1877.4766,634.624,1881.4766,624.624,1885.4766,628.624,1881.4766" style="stroke:#181818;stroke-width:1;"/><line style="stroke:#181818;stroke-width:1;" x1="330.5024" x2="630.624" y1="1881.4766" y2="1881.4766"/><text fill="#000000" font-family="sans-serif" font-size="13" lengthAdjust="spacing" textLength="217.2676" x="337.5024" y="1876.4106">DELETE request (category entity)</text></g><path d="M335,1894.4766 L335,1919.4766 L476,1919.4766 L476,1904.4766 L466,1894.4766 L335,1894.4766" fill="#FEFFDD" style="stroke:#181818;stroke-width:0.5;"/><path d="M466,1894.4766 L466,1904.4766 L476,1904.4766 L466,1894.4766" fill="#FEFFDD" style="stroke:#181818;stroke-width:0.5;"/><text fill="#000000" font-family="sans-serif" font-size="13" lengthAdjust="spacing" textLength="120.7705" x="341" y="1911.5435">include categoryId</text><g class="message" data-participant-1="be" data-participant-2="db"><polygon fill="#181818" points="932.0532,1941.7422,942.0532,1945.7422,932.0532,1949.7422,936.0532,1945.7422" style="stroke:#181818;stroke-width:1;"/><line style="stroke:#181818;stroke-width:1;" x1="636.624" x2="938.0532" y1="1945.7422" y2="1945.7422"/><text fill="#000000" font-family="sans-serif" font-size="13" lengthAdjust="spacing" textLength="146.1675" x="643.624" y="1940.6763">Delete category entity</text></g><g class="message" data-participant-1="be" data-participant-2="fe"><polygon fill="#181818" points="341.5024,1970.875,331.5024,1974.875,341.5024,1978.875,337.5024,1974.875" style="stroke:#181818;stroke-width:1;"/><line style="stroke:#181818;stroke-width:1;" x1="335.5024" x2="635.624" y1="1974.875" y2="1974.875"/><text fill="#000000" font-family="sans-serif" font-size="13" lengthAdjust="spacing" textLength="163.4014" x="347.5024" y="1969.8091">Return deletion message</text></g><path d="M335,1987.875 L335,2012.875 L629,2012.875 L629,1997.875 L619,1987.875 L335,1987.875" fill="#FEFFDD" style="stroke:#181818;stroke-width:0.5;"/><path d="M619,1987.875 L619,1997.875 L629,1997.875 L619,1987.875" fill="#FEFFDD" style="stroke:#181818;stroke-width:0.5;"/><text fill="#000000" font-family="sans-serif" font-size="13" lengthAdjust="spacing" textLength="273.4697" x="341" y="2004.9419">remove category from Categories context</text><g class="message" data-participant-1="fe" data-participant-2="user"><polygon fill="#181818" points="49.9551,2035.1406,39.9551,2039.1406,49.9551,2043.1406,45.9551,2039.1406" style="stroke:#181818;stroke-width:1;"/><line style="stroke:#181818;stroke-width:1;" x1="43.9551" x2="329.5024" y1="2039.1406" y2="2039.1406"/><text fill="#000000" font-family="sans-serif" font-size="13" lengthAdjust="spacing" textLength="167.3687" x="55.9551" y="2034.0747">Display deletion message</text></g><!--SRC=[nPLDJnin48Rl-olc21AezqX1eacea12W9BHdnvvDB1nxQtiB-VSTUpyJzYEbbPf3M37ZcV7plZjXt1iBBmujC0Sv_KqoPhtaCcFQmvqrsgCM8PZYKUWhuwzbP8E9O9vjc4EOLm_qVx59akaKRdDluC5ifORfD4aHhgzlgDe4PZlaho3Js1UaJWtWktJUqJCemvbQqNHiYqd2b2-cR6KbG9zGxeOccC2tnHei_ipHURYGuZA6Dp4iDXDOehSIVz5WIb4UDrOue6-BcT52wYtGbCKWedKqp4b7SwlXpTXNO7HbpZnkZJrKPM9w_DB68rYvtVc02yhFtkG4ZCfRT1boBsaA7i2-bvS87CFHfb19ASmpWRbqcMA7rkGHWzqpBurs2IhY_MWQZFqbL9GXO98M1UpHkS2N1eXI5IezxuA0f5KiM49OqBoMYD4nr5uovU0Yn3NRunLap3dYGzGRGPwVLcluqcePbUawqwZqdIb9NiBnFj4IgvnpkaAQgw9Djt2DlSWNLr1LknpJpP7xi7MQ58okZ860hLkx_swSStrJ6EUEIKLM6E27rXegbvucTlNgogtS5L_WfmnjqJyuB8WuinWKVyGtc5M0Olss_SgaYk0OEHvN2zqLH9uf6OuD4wiDMnkr5YlOq1zEzycAaHYQPZx9wqRObJGmlaLbMEqNYQwI_GpLbvWgyihHR8K40VQj497qClhX0sOAktZIDl4-GD7M0t1Ao_NbbUsW5GvMRrzqd50y_2asYjuB8SYZvKrhGWiXVH-U6Ej6yp94Pk0YKdEL2umtkQVj5FP4diKTYA5RU1fSD3Nla8v7F7jUv-wySTW__WPssVMKzXmLKiiUtcMqa_XyyR1OB_uvz2R75Tq5R8nHoFIe2kMqemA8a4SRiFxv7SM_Dytxb5gp_rCfgktyeVEf3hFsVkrGucZ_zclHkJlFqACwTo_EXNtMzlqayBfsH3xxp38U0lyR]--></g></svg>